<?xml version="1.0" encoding="utf-8"?>
<!-- Generator: Adobe Illustrator 16.0.0, SVG Export Plug-In . SVG Version: 6.00 Build 0)  -->
<?xml-stylesheet href="../css/fx-rebate-style.css" type="text/css"?>
<!DOCTYPE svg PUBLIC "-//W3C//DTD SVG 1.1//EN" "http://www.w3.org/Graphics/SVG/1.1/DTD/svg11.dtd">
<svg version="1.1" id="Layer_1" xmlns="http://www.w3.org/2000/svg" xmlns:xlink="http://www.w3.org/1999/xlink" x="0px" y="0px"
	 width="170px" height="170px" viewBox="0 0 170 170" enable-background="new 0 0 170 170" xml:space="preserve">
	<path class="svg-anmtion" fill="none" stroke="#2988CA" stroke-width="2" stroke-dasharray="526" stroke-dashoffset="526" d="M63.399,96.914c0-8.053-0.001-16.099,0-24.151c0-2.563,1.276-3.836,3.839-3.836c11.83-0.001,23.658-0.002,35.49-0.002
	c2.297,0,3.665,1.342,3.667,3.626c0.004,16.2,0.004,32.405,0,48.607c0,2.477-1.287,3.761-3.749,3.764
	c-11.863,0.004-23.717,0.004-35.57-0.003c-2.334,0-3.672-1.342-3.675-3.699C63.395,113.116,63.398,105.015,63.399,96.914z
	 M99.934,75.582c-10.008,0-19.945,0-29.883,0c0,14.316,0,28.581,0,42.844c9.985,0,19.918,0,29.883,0
	C99.934,104.126,99.934,89.89,99.934,75.582z"/>
	<path class="svg-anmtion" fill="none" stroke="#2988CA" stroke-width="2" stroke-dasharray="526" stroke-dashoffset="526" d="M84.934,53.589c-9.794,0-19.588,0.019-29.381-0.015c-1.996-0.007-3.534,0.772-4.771,2.261
	c-2.944,3.542-2.992,9.628-0.099,13.221c1.142,1.419,2.555,2.294,4.451,2.389c2.188,0.109,3.752,1.861,3.624,3.891
	c-0.133,2.101-1.787,3.598-3.982,3.534c-3.32-0.095-6.137-1.403-8.498-3.702c-6.644-6.474-6.668-18.398-0.054-24.898
	c2.542-2.499,5.591-3.775,9.174-3.774c19.529,0.005,39.058,0.032,58.586-0.019c5.627-0.015,9.658,2.517,12.408,7.258
	c3.738,6.452,2.901,15.071-1.965,20.603c-2.449,2.785-5.504,4.425-9.268,4.532c-2.176,0.062-3.842-1.489-3.945-3.577
	c-0.102-1.996,1.469-3.758,3.586-3.844c2.119-0.086,3.619-1.129,4.778-2.771c2.452-3.47,2.501-8.654,0.123-12.17
	c-1.304-1.929-3.034-2.957-5.476-2.942C104.463,53.625,94.697,53.589,84.934,53.589z"/>
	<path class="svg-anmtion" fill="none" stroke="#2988CA" stroke-width="2" stroke-dasharray="526" stroke-dashoffset="526" d="M89.438,96.81c0-4.678-0.008-9.361,0.006-14.04c0.004-1.689,1.138-2.988,2.802-3.264c1.522-0.256,3.061,0.666,3.564,2.181
	c0.134,0.405,0.185,0.857,0.185,1.286c0.014,9.178,0.028,18.357-0.02,27.541c-0.003,0.771-0.318,1.621-0.724,2.29
	c-0.754,1.225-2.206,1.66-3.509,1.251c-1.352-0.423-2.285-1.621-2.294-3.049c-0.024-3.496-0.011-6.997-0.015-10.497
	c0-1.231,0-2.463,0-3.699C89.437,96.81,89.438,96.81,89.438,96.81z"/>
	<path class="svg-anmtion" fill="none" stroke="#2988CA" stroke-width="2" stroke-dasharray="526" stroke-dashoffset="526" d="M78.429,95.772c-0.746,0-1.494,0.008-2.239-0.002c-1.884-0.021-3.346-1.393-3.395-3.192
	c-0.053-1.805,1.321-3.321,3.183-3.395c1.668-0.06,3.345-0.058,5.015,0.001c1.814,0.072,3.208,1.587,3.171,3.337
	c-0.039,1.809-1.475,3.215-3.344,3.247C80.022,95.786,79.223,95.771,78.429,95.772z"/>
	<path class="svg-anmtion" fill="none" stroke="#2988CA" stroke-width="2" stroke-dasharray="526" stroke-dashoffset="526" d="M78.506,87.37c-0.823,0-1.648,0.031-2.469-0.008c-1.916-0.093-3.301-1.574-3.242-3.414c0.056-1.788,1.52-3.146,3.415-3.153
	c1.542-0.008,3.085-0.015,4.626,0.003c1.864,0.018,3.3,1.427,3.332,3.248c0.032,1.715-1.33,3.182-3.118,3.306
	c-0.843,0.057-1.696,0.011-2.544,0.011C78.506,87.365,78.506,87.368,78.506,87.37z"/>
	<circle class="svg-anmtion-delay" fill="none" stroke="#2988CA" stroke-width="3" stroke-linecap="round" stroke-dasharray="526" stroke-dashoffset="526" cx="85.062" cy="85.063" r="83.395"/>
</svg>
